<?xml version="1.0" encoding="UTF-8" standalone="no"?>
<!-- Created with Inkscape (http://www.inkscape.org/) -->

<svg
   xmlns:dc="http://purl.org/dc/elements/1.1/"
   xmlns:cc="http://creativecommons.org/ns#"
   xmlns:rdf="http://www.w3.org/1999/02/22-rdf-syntax-ns#"
   xmlns:svg="http://www.w3.org/2000/svg"
   xmlns="http://www.w3.org/2000/svg"
   xmlns:sodipodi="http://sodipodi.sourceforge.net/DTD/sodipodi-0.dtd"
   xmlns:inkscape="http://www.inkscape.org/namespaces/inkscape"
   width="196.49998mm"
   height="50.920521mm"
   viewBox="0 0 196.49998 50.920521"
   version="1.1"
   id="svg8"
   inkscape:version="0.92.1 r15371"
   sodipodi:docname="typographic-black.svg">
  <defs
     id="defs2">
    <clipPath
       id="clipPath4507"
       clipPathUnits="userSpaceOnUse">
      <path
         inkscape:connector-curvature="0"
         id="path4505"
         d="M 0,1781.644 H 2207.559 V 0 H 0 Z" />
    </clipPath>
    <clipPath
       id="clipPath4519"
       clipPathUnits="userSpaceOnUse">
      <path
         inkscape:connector-curvature="0"
         id="path4517"
         d="m 1946.09,1688.13 h 146.35 v -115.11 h -146.35 z" />
    </clipPath>
    <clipPath
       id="clipPath4523"
       clipPathUnits="userSpaceOnUse">
      <path
         inkscape:connector-curvature="0"
         id="path4521"
         d="m 1946.09,1688.13 h 146.35 v -115.11 h -146.35 z" />
    </clipPath>
    <clipPath
       id="clipPath4527"
       clipPathUnits="userSpaceOnUse">
      <path
         inkscape:connector-curvature="0"
         id="path4525"
         d="m 1987.23,1614.4 h 65.07 v -41.38 h -65.07 z" />
    </clipPath>
    <clipPath
       id="clipPath4531"
       clipPathUnits="userSpaceOnUse">
      <path
         inkscape:connector-curvature="0"
         id="path4529"
         d="m 1970.46,1646.43 h 97.45 v -61.97 h -97.45 z" />
    </clipPath>
    <clipPath
       id="clipPath4535"
       clipPathUnits="userSpaceOnUse">
      <path
         inkscape:connector-curvature="0"
         id="path4533"
         d="m 1946.09,1688.13 h 146.35 v -92.61 h -146.35 z" />
    </clipPath>
    <clipPath
       id="clipPath4897"
       clipPathUnits="userSpaceOnUse">
      <path
         inkscape:connector-curvature="0"
         id="path4895"
         d="m 1946.57,1270.9 h 146.34 v -115.11 h -146.34 z" />
    </clipPath>
    <clipPath
       id="clipPath4901"
       clipPathUnits="userSpaceOnUse">
      <path
         inkscape:connector-curvature="0"
         id="path4899"
         d="m 1946.57,1270.9 h 146.34 v -115.11 h -146.34 z" />
    </clipPath>
    <clipPath
       id="clipPath4905"
       clipPathUnits="userSpaceOnUse">
      <path
         inkscape:connector-curvature="0"
         id="path4903"
         d="m 1987.71,1197.17 h 65.07 v -41.38 h -65.07 z" />
    </clipPath>
    <clipPath
       id="clipPath4909"
       clipPathUnits="userSpaceOnUse">
      <path
         inkscape:connector-curvature="0"
         id="path4907"
         d="m 1970.94,1229.2 h 97.44 v -61.96 h -97.44 z" />
    </clipPath>
    <clipPath
       id="clipPath4913"
       clipPathUnits="userSpaceOnUse">
      <path
         inkscape:connector-curvature="0"
         id="path4911"
         d="m 1946.57,1270.9 h 146.34 v -92.61 h -146.34 z" />
    </clipPath>
    <clipPath
       id="clipPath5033"
       clipPathUnits="userSpaceOnUse">
      <path
         inkscape:connector-curvature="0"
         id="path5031"
         d="M 895.618,1272.52 H 1041.96 V 1157.41 H 895.618 Z" />
    </clipPath>
    <clipPath
       id="clipPath5037"
       clipPathUnits="userSpaceOnUse">
      <path
         inkscape:connector-curvature="0"
         id="path5035"
         d="M 895.618,1272.52 H 1041.96 V 1157.41 H 895.618 Z" />
    </clipPath>
    <clipPath
       id="clipPath5041"
       clipPathUnits="userSpaceOnUse">
      <path
         inkscape:connector-curvature="0"
         id="path5039"
         d="m 936.758,1198.79 h 65.072 v -41.38 h -65.072 z" />
    </clipPath>
    <clipPath
       id="clipPath5045"
       clipPathUnits="userSpaceOnUse">
      <path
         inkscape:connector-curvature="0"
         id="path5043"
         d="m 919.987,1230.82 h 97.443 v -61.97 h -97.443 z" />
    </clipPath>
    <clipPath
       id="clipPath5049"
       clipPathUnits="userSpaceOnUse">
      <path
         inkscape:connector-curvature="0"
         id="path5047"
         d="M 895.618,1272.52 H 1041.96 V 1179.9 H 895.618 Z" />
    </clipPath>
    <clipPath
       id="clipPath5169"
       clipPathUnits="userSpaceOnUse">
      <path
         inkscape:connector-curvature="0"
         id="path5167"
         d="M 895.618,1689.13 H 1041.96 V 1574.02 H 895.618 Z" />
    </clipPath>
    <clipPath
       id="clipPath5173"
       clipPathUnits="userSpaceOnUse">
      <path
         inkscape:connector-curvature="0"
         id="path5171"
         d="M 895.618,1689.13 H 1041.96 V 1574.02 H 895.618 Z" />
    </clipPath>
    <clipPath
       id="clipPath5177"
       clipPathUnits="userSpaceOnUse">
      <path
         inkscape:connector-curvature="0"
         id="path5175"
         d="m 936.758,1615.4 h 65.072 v -41.38 h -65.072 z" />
    </clipPath>
    <clipPath
       id="clipPath5181"
       clipPathUnits="userSpaceOnUse">
      <path
         inkscape:connector-curvature="0"
         id="path5179"
         d="m 919.987,1647.43 h 97.443 v -61.97 h -97.443 z" />
    </clipPath>
    <clipPath
       id="clipPath5185"
       clipPathUnits="userSpaceOnUse">
      <path
         inkscape:connector-curvature="0"
         id="path5183"
         d="m 895.618,1689.13 h 146.342 v -92.61 H 895.618 Z" />
    </clipPath>
  </defs>
  <sodipodi:namedview
     id="base"
     pagecolor="#ffffff"
     bordercolor="#666666"
     borderopacity="1.0"
     inkscape:pageopacity="0.0"
     inkscape:pageshadow="2"
     inkscape:zoom="0.7"
     inkscape:cx="190.51076"
     inkscape:cy="252.70839"
     inkscape:document-units="mm"
     inkscape:current-layer="g4501"
     showgrid="false"
     fit-margin-top="0"
     fit-margin-left="0"
     fit-margin-right="0"
     fit-margin-bottom="0"
     inkscape:window-width="1920"
     inkscape:window-height="1019"
     inkscape:window-x="0"
     inkscape:window-y="27"
     inkscape:window-maximized="1" />
  <metadata
     id="metadata5">
    <rdf:RDF>
      <cc:Work
         rdf:about="">
        <dc:format>image/svg+xml</dc:format>
        <dc:type
           rdf:resource="http://purl.org/dc/dcmitype/StillImage" />
        <dc:title />
      </cc:Work>
    </rdf:RDF>
  </metadata>
  <g
     inkscape:label="Layer 1"
     inkscape:groupmode="layer"
     id="layer1"
     transform="translate(-3.3498963,-140.15404)">
    <g
       id="g4501"
       transform="matrix(0.35277777,0,0,-0.35277777,-97.536848,731.93148)">
      <g
         id="g4655">
        <g
           id="g4619">
          <g
             transform="matrix(0.75380327,0,0,0.75380327,840.47511,1677.0157)"
             id="g4645">
            <path
               inkscape:connector-curvature="0"
               id="path4647"
               style="fill:#3b3a3b;fill-opacity:1;fill-rule:nonzero;stroke:none"
               d="M 0,0 H 3.331 V -15.236 H 0 v 10.677 l -5.246,-7.029 -5.299,7.029 v -10.677 h -3.329 V 0 h 3.329 l 5.299,-7.025 z m -20.444,-15.236 h -3.33 v 12.183 h -4.704 V 0 h 12.781 v -3.053 h -4.747 z" />
          </g>
          <g
             transform="matrix(0.75380327,0,0,0.75380327,702.24727,1677.4102)"
             id="g4649">
            <path
               inkscape:connector-curvature="0"
               id="path4651"
               style="fill:#3b3a3b;fill-opacity:1;fill-rule:nonzero;stroke:none"
               d="M 0,0 37.059,-38.522 73.98,0 H 94.414 L 46.684,-47.715 96.307,-97.336 H 75.439 l -38.38,39.84 -38.527,-39.84 H -22.334 L 27.288,-47.715 -20.434,0 Z" />
          </g>
          <g
             transform="matrix(0.75380327,0,0,0.75380327,779.50916,1641.4426)"
             id="g4653">
            <path
               inkscape:connector-curvature="0"
               id="path4655"
               style="fill:#e17d00;fill-opacity:1;fill-rule:nonzero;stroke:none"
               d="M 0,0 47.722,47.715 H 27.297 L -9.636,9.193 -27.919,27.881 -37.613,18.221 -19.396,0 -69.018,-49.621 h 20.866 l 38.516,39.84 38.382,-39.84 h 20.876 z" />
          </g>
          <g
             transform="matrix(0.75380327,0,0,0.75380327,728.91517,1677.4102)"
             id="g4657">
            <path
               inkscape:connector-curvature="0"
               id="path4659"
               style="fill:#e17d00;fill-opacity:1;fill-rule:nonzero;stroke:none"
               d="M 0,0 19.715,-19.705 29.466,-9.539 20.425,0 Z" />
          </g>
          <g
             transform="matrix(0.75380327,0,0,0.75380327,600.16203,1628.2378)"
             id="g4661">
            <path
               inkscape:connector-curvature="0"
               id="path4663"
               style="fill:#3b3a3b;fill-opacity:1;fill-rule:nonzero;stroke:none"
               d="m 0,0 c 0,-9.051 0.591,-12.117 2.923,-14.6 2.327,-2.336 5.116,-2.916 14.594,-2.916 h 50.489 c 9.492,0 12.267,0.58 14.583,2.916 2.349,2.483 2.934,5.549 2.934,14.6 v 33.127 c 0,9.047 -0.585,12.109 -2.934,14.59 -2.316,2.332 -5.091,2.922 -14.583,2.922 H 17.517 C 8.039,50.639 5.25,50.049 2.923,47.717 0.591,45.236 0,42.174 0,33.127 Z m 101.152,-2.928 c 0,-11.08 -1.895,-17.361 -6.862,-22.172 -5.126,-4.966 -11.542,-7.004 -22.344,-7.004 H 13.567 c -10.778,0 -17.21,2.038 -22.326,7.004 -4.951,4.811 -6.856,11.092 -6.856,22.172 v 38.979 c 0,11.07 1.905,17.357 6.856,22.166 5.116,4.967 11.548,7.015 22.326,7.015 h 58.379 c 10.802,0 17.218,-2.048 22.344,-7.015 4.967,-4.809 6.862,-11.096 6.862,-22.166 z" />
          </g>
          <g
             transform="matrix(0.75380327,0,0,0.75380327,567.24125,1677.4102)"
             id="g4665">
            <path
               inkscape:connector-curvature="0"
               id="path4667"
               style="fill:#3b3a3b;fill-opacity:1;fill-rule:nonzero;stroke:none"
               d="M 0,0 H 18.533 L -45.24,-97.625 H -55.889 L -119.663,0 h 18.525 l 50.499,-77.781 z" />
          </g>
          <g
             transform="matrix(0.75380327,0,0,0.75380327,401.50102,1666.4638)"
             id="g4669">
            <path
               inkscape:connector-curvature="0"
               id="path4671"
               style="fill:#3b3a3b;fill-opacity:1;fill-rule:nonzero;stroke:none"
               d="M 0,0 V -26.898 H 88.569 L 86.67,-41.512 H 0 V -68.26 H 92.515 V -82.873 H -15.637 V 14.613 H 88.569 V 0 Z" />
          </g>
          <g
             transform="matrix(0.75380327,0,0,0.75380327,297.76842,1615.0095)"
             id="g4673">
            <path
               inkscape:connector-curvature="0"
               id="path4675"
               style="fill:#3b3a3b;fill-opacity:1;fill-rule:nonzero;stroke:none"
               d="m 0,0 h 68.107 c 9.498,0 12.278,0.59 14.616,2.926 2.339,2.482 2.924,5.553 2.924,14.619 v 33.17 c 0,9.064 -0.585,12.137 -2.924,14.623 -2.338,2.332 -5.118,2.922 -14.616,2.922 H 0 Z m 72.054,82.873 c 10.814,0 17.245,-2.045 22.361,-7.012 4.969,-4.828 6.869,-11.115 6.869,-22.218 V 14.621 c 0,-11.109 -1.9,-17.394 -6.869,-22.219 -5.116,-4.972 -11.547,-7.015 -22.361,-7.015 h -87.695 v 97.486 z" />
          </g>
        </g>
        <g
           transform="translate(-12.84586)"
           id="g4601">
          <g
             transform="matrix(0.75380327,0,0,0.75380327,355.20099,1585.74)"
             id="g4677">
            <path
               inkscape:connector-curvature="0"
               id="path4679"
               style="fill:#3b3a3b;fill-opacity:1;fill-rule:nonzero;stroke:none"
               d="M 0,0 H 14.604 V -69.782 H 0 v 50.798 l -30.041,-29.937 -30.146,29.937 V -69.782 H -74.79 V 0 h 14.603 l 30.146,-30.145 z" />
          </g>
          <g
             transform="matrix(0.75380327,0,0,0.75380327,398.68601,1575.5967)"
             id="g4681">
            <path
               inkscape:connector-curvature="0"
               id="path4683"
               style="fill:#3b3a3b;fill-opacity:1;fill-rule:nonzero;stroke:none"
               d="m 0,0 c -6.884,0 -8.345,-1.46 -8.345,-8.344 v -26.39 c 0,-6.885 1.461,-8.346 8.345,-8.346 h 37.552 c 6.884,0 8.344,1.461 8.344,8.346 v 26.39 C 45.896,-1.46 44.436,0 37.552,0 Z m 60.5,-35.36 c 0,-7.928 -1.356,-12.413 -4.903,-15.96 -3.546,-3.546 -8.241,-5.006 -15.959,-5.006 H -2.086 c -7.719,0 -12.413,1.46 -15.959,5.006 -3.547,3.547 -4.902,8.032 -4.902,15.96 v 27.641 c 0,7.928 1.355,12.413 4.902,15.959 3.546,3.547 8.24,5.008 15.959,5.008 h 41.724 c 7.718,0 12.413,-1.461 15.959,-5.008 C 59.144,4.694 60.5,0.209 60.5,-7.719 Z" />
          </g>
          <g
             transform="matrix(0.75380327,0,0,0.75380327,470.47779,1560.1857)"
             id="g4685">
            <path
               inkscape:connector-curvature="0"
               id="path4687"
               style="fill:#3b3a3b;fill-opacity:1;fill-rule:nonzero;stroke:none"
               d="m 0,0 h 45.896 c 6.884,0 8.345,1.46 8.345,8.345 v 3.756 c 0,6.883 -1.461,8.343 -8.345,8.343 L 0,20.444 Z m 47.982,33.692 c 7.719,0 12.412,-1.461 15.959,-5.007 3.547,-3.546 4.903,-8.032 4.903,-15.855 V 7.614 c 0,-13.142 -4.381,-18.879 -16.064,-20.758 L 70.931,-35.882 H 53.511 L 35.986,-13.247 H 0 v -22.635 h -14.604 v 69.574 z" />
          </g>
          <g
             transform="matrix(0.75380327,0,0,0.75380327,554.30003,1575.5967)"
             id="g4689">
            <path
               inkscape:connector-curvature="0"
               id="path4691"
               style="fill:#3b3a3b;fill-opacity:1;fill-rule:nonzero;stroke:none"
               d="m 0,0 c -6.884,0 -8.345,-1.46 -8.345,-8.344 v -26.39 c 0,-6.885 1.461,-8.346 8.345,-8.346 h 37.552 c 6.884,0 8.345,1.461 8.345,8.346 v 26.39 C 45.897,-1.46 44.436,0 37.552,0 Z m 60.5,-35.36 c 0,-7.928 -1.356,-12.413 -4.903,-15.96 -3.546,-3.546 -8.241,-5.006 -15.959,-5.006 H -2.086 c -7.719,0 -12.413,1.46 -15.959,5.006 -3.547,3.547 -4.902,8.032 -4.902,15.96 v 27.641 c 0,7.928 1.355,12.413 4.902,15.959 3.546,3.547 8.24,5.008 15.959,5.008 h 41.724 c 7.718,0 12.413,-1.461 15.959,-5.008 C 59.144,4.694 60.5,0.209 60.5,-7.719 Z" />
          </g>
          <g
             transform="matrix(0.75380327,0,0,0.75380327,666.42827,1571.9013)"
             id="g4693">
            <path
               inkscape:connector-curvature="0"
               id="path4695"
               style="fill:#3b3a3b;fill-opacity:1;fill-rule:nonzero;stroke:none"
               d="m 0,0 c -0.835,3.964 -2.4,4.902 -8.345,4.902 h -37.551 c -6.884,0 -8.345,-1.46 -8.345,-8.343 v -26.391 c 0,-6.885 1.461,-8.346 8.345,-8.346 h 37.551 c 5.945,0 7.51,0.94 8.345,4.904 l 14.604,-1.357 C 13.038,-46.834 7.302,-51.424 -6.259,-51.424 h -41.723 c -7.719,0 -12.414,1.46 -15.959,5.006 -3.547,3.547 -4.903,8.032 -4.903,15.96 v 27.642 c 0,7.927 1.356,12.413 4.903,15.959 3.545,3.546 8.24,5.007 15.959,5.007 h 41.723 c 13.561,0 19.297,-4.589 20.863,-16.795 z" />
          </g>
          <g
             transform="matrix(0.75380327,0,0,0.75380327,742.78025,1571.9013)"
             id="g4697">
            <path
               inkscape:connector-curvature="0"
               id="path4699"
               style="fill:#3b3a3b;fill-opacity:1;fill-rule:nonzero;stroke:none"
               d="m 0,0 c -0.835,3.964 -2.399,4.902 -8.345,4.902 h -37.551 c -6.884,0 -8.346,-1.46 -8.346,-8.343 v -26.391 c 0,-6.885 1.462,-8.346 8.346,-8.346 h 37.551 c 5.946,0 7.51,0.94 8.345,4.904 l 14.604,-1.357 C 13.038,-46.834 7.302,-51.424 -6.259,-51.424 h -41.723 c -7.719,0 -12.414,1.46 -15.959,5.006 -3.547,3.547 -4.903,8.032 -4.903,15.96 v 27.642 c 0,7.927 1.356,12.413 4.903,15.959 3.545,3.546 8.24,5.007 15.959,5.007 h 41.723 c 13.561,0 19.297,-4.589 20.863,-16.795 z" />
          </g>
          <g
             transform="matrix(0.75380327,0,0,0.75380327,784.53537,1575.5967)"
             id="g4701">
            <path
               inkscape:connector-curvature="0"
               id="path4703"
               style="fill:#3b3a3b;fill-opacity:1;fill-rule:nonzero;stroke:none"
               d="m 0,0 c -6.884,0 -8.345,-1.46 -8.345,-8.344 v -26.39 c 0,-6.885 1.461,-8.346 8.345,-8.346 h 37.552 c 6.884,0 8.344,1.461 8.344,8.346 v 26.39 C 45.896,-1.46 44.436,0 37.552,0 Z m 60.5,-35.36 c 0,-7.928 -1.356,-12.413 -4.903,-15.96 -3.546,-3.546 -8.24,-5.006 -15.959,-5.006 H -2.086 c -7.719,0 -12.413,1.46 -15.959,5.006 -3.547,3.547 -4.902,8.032 -4.902,15.96 v 27.641 c 0,7.928 1.355,12.413 4.902,15.959 3.546,3.547 8.24,5.008 15.959,5.008 h 41.724 c 7.719,0 12.413,-1.461 15.959,-5.008 C 59.144,4.694 60.5,0.209 60.5,-7.719 Z" />
          </g>
        </g>
      </g>
    </g>
  </g>
</svg>
